REM GENRE Death Metal
REM DATE 2006
REM DISCID E912C263
REM COMMENT ExactAudioCopy v1.0b1
PERFORMER "Edge of Sanity"
TITLE "When All Is Said: The Best of Edge of Sanity"
REM REPLAYGAIN_ALBUM_GAIN -8.32 dB
REM REPLAYGAIN_ALBUM_PEAK 1.150353
FILE "Edge of Sanity - When All Is Said (CD2).flac" WAVE
  TRACK 01 AUDIO
    TITLE "Crimson, Part 1"
    REM REPLAYGAIN_TRACK_GAIN -10.16 dB
    REM REPLAYGAIN_TRACK_PEAK 1.117337
    INDEX 01 00:00:00
  TRACK 02 AUDIO
    TITLE "Crimson, Part 2"
    REM REPLAYGAIN_TRACK_GAIN -9.38 dB
    REM REPLAYGAIN_TRACK_PEAK 1.082512
    INDEX 01 00:38:16
  TRACK 03 AUDIO
    TITLE "Crimson, Part 3"
    REM REPLAYGAIN_TRACK_GAIN -11.02 dB
    REM REPLAYGAIN_TRACK_PEAK 1.114110
    INDEX 01 01:55:15
  TRACK 04 AUDIO
    TITLE "Crimson, Part 4"
    REM REPLAYGAIN_TRACK_GAIN -10.59 dB
    REM REPLAYGAIN_TRACK_PEAK 1.082862
    INDEX 01 02:42:11
  TRACK 05 AUDIO
    TITLE "Crimson, Part 5"
    REM REPLAYGAIN_TRACK_GAIN -4.90 dB
    REM REPLAYGAIN_TRACK_PEAK 1.032541
    INDEX 01 03:09:01
  TRACK 06 AUDIO
    TITLE "Crimson, Part 6"
    REM REPLAYGAIN_TRACK_GAIN -3.74 dB
    REM REPLAYGAIN_TRACK_PEAK 1.025570
    INDEX 01 04:02:15
  TRACK 07 AUDIO
    TITLE "Crimson, Part 7"
    REM REPLAYGAIN_TRACK_GAIN -9.83 dB
    REM REPLAYGAIN_TRACK_PEAK 1.069188
    INDEX 01 04:54:07
  TRACK 08 AUDIO
    TITLE "Crimson, Part 8"
    REM REPLAYGAIN_TRACK_GAIN -10.75 dB
    REM REPLAYGAIN_TRACK_PEAK 1.078141
    INDEX 01 05:13:71
  TRACK 09 AUDIO
    TITLE "Crimson, Part 9"
    REM REPLAYGAIN_TRACK_GAIN -10.00 dB
    REM REPLAYGAIN_TRACK_PEAK 1.081721
    INDEX 01 05:44:56
  TRACK 10 AUDIO
    TITLE "Crimson, Part 10"
    REM REPLAYGAIN_TRACK_GAIN -11.05 dB
    REM REPLAYGAIN_TRACK_PEAK 1.061313
    INDEX 01 06:08:50
  TRACK 11 AUDIO
    TITLE "Crimson, Part 11"
    REM REPLAYGAIN_TRACK_GAIN -9.83 dB
    REM REPLAYGAIN_TRACK_PEAK 1.058353
    INDEX 01 06:40:64
  TRACK 12 AUDIO
    TITLE "Crimson, Part 12"
    REM REPLAYGAIN_TRACK_GAIN -9.66 dB
    REM REPLAYGAIN_TRACK_PEAK 1.049014
    INDEX 01 07:46:36
  TRACK 13 AUDIO
    TITLE "Crimson, Part 13"
    REM REPLAYGAIN_TRACK_GAIN -10.96 dB
    REM REPLAYGAIN_TRACK_PEAK 1.080913
    INDEX 01 08:19:59
  TRACK 14 AUDIO
    TITLE "Crimson, Part 14"
    REM REPLAYGAIN_TRACK_GAIN -9.41 dB
    REM REPLAYGAIN_TRACK_PEAK 1.063654
    INDEX 01 09:17:06
  TRACK 15 AUDIO
    TITLE "Crimson, Part 15"
    REM REPLAYGAIN_TRACK_GAIN -10.16 dB
    REM REPLAYGAIN_TRACK_PEAK 1.050239
    INDEX 01 10:45:65
  TRACK 16 AUDIO
    TITLE "Crimson, Part 16"
    REM REPLAYGAIN_TRACK_GAIN -9.77 dB
    REM REPLAYGAIN_TRACK_PEAK 1.103854
    INDEX 01 11:06:35
  TRACK 17 AUDIO
    TITLE "Crimson, Part 17"
    REM REPLAYGAIN_TRACK_GAIN -9.96 dB
    REM REPLAYGAIN_TRACK_PEAK 1.099316
    INDEX 01 11:47:15
  TRACK 18 AUDIO
    TITLE "Crimson, Part 18"
    REM REPLAYGAIN_TRACK_GAIN -9.34 dB
    REM REPLAYGAIN_TRACK_PEAK 1.093543
    INDEX 01 12:11:52
  TRACK 19 AUDIO
    TITLE "Crimson, Part 19"
    REM REPLAYGAIN_TRACK_GAIN -10.63 dB
    REM REPLAYGAIN_TRACK_PEAK 1.090411
    INDEX 01 12:41:62
  TRACK 20 AUDIO
    TITLE "Crimson, Part 20"
    REM REPLAYGAIN_TRACK_GAIN -9.76 dB
    REM REPLAYGAIN_TRACK_PEAK 1.073009
    INDEX 01 12:59:27
  TRACK 21 AUDIO
    TITLE "Crimson, Part 21"
    REM REPLAYGAIN_TRACK_GAIN -10.51 dB
    REM REPLAYGAIN_TRACK_PEAK 1.075462
    INDEX 01 14:04:09
  TRACK 22 AUDIO
    TITLE "Crimson, Part 22"
    REM REPLAYGAIN_TRACK_GAIN -9.60 dB
    REM REPLAYGAIN_TRACK_PEAK 1.081226
    INDEX 01 14:44:25
  TRACK 23 AUDIO
    TITLE "Crimson, Part 23"
    REM REPLAYGAIN_TRACK_GAIN -9.60 dB
    REM REPLAYGAIN_TRACK_PEAK 1.102361
    INDEX 01 15:33:20
  TRACK 24 AUDIO
    TITLE "Crimson, Part 24"
    REM REPLAYGAIN_TRACK_GAIN -7.61 dB
    REM REPLAYGAIN_TRACK_PEAK 1.091328
    INDEX 01 16:31:58
  TRACK 25 AUDIO
    TITLE "Crimson, Part 25"
    REM REPLAYGAIN_TRACK_GAIN -9.62 dB
    REM REPLAYGAIN_TRACK_PEAK 1.080595
    INDEX 01 17:45:49
  TRACK 26 AUDIO
    TITLE "Crimson, Part 26"
    REM REPLAYGAIN_TRACK_GAIN -8.70 dB
    REM REPLAYGAIN_TRACK_PEAK 1.097867
    INDEX 01 18:16:61
  TRACK 27 AUDIO
    TITLE "Crimson, Part 27"
    REM REPLAYGAIN_TRACK_GAIN -10.71 dB
    REM REPLAYGAIN_TRACK_PEAK 1.089200
    INDEX 01 19:12:50
  TRACK 28 AUDIO
    TITLE "Crimson, Part 28"
    REM REPLAYGAIN_TRACK_GAIN -9.87 dB
    REM REPLAYGAIN_TRACK_PEAK 1.090685
    INDEX 01 19:59:58
  TRACK 29 AUDIO
    TITLE "Crimson, Part 29"
    REM REPLAYGAIN_TRACK_GAIN -10.75 dB
    REM REPLAYGAIN_TRACK_PEAK 1.124153
    INDEX 01 20:44:19
  TRACK 30 AUDIO
    TITLE "Crimson, Part 30"
    REM REPLAYGAIN_TRACK_GAIN -9.85 dB
    REM REPLAYGAIN_TRACK_PEAK 1.087260
    INDEX 01 21:40:05
  TRACK 31 AUDIO
    TITLE "Crimson, Part 31"
    REM REPLAYGAIN_TRACK_GAIN -10.44 dB
    REM REPLAYGAIN_TRACK_PEAK 1.080998
    INDEX 01 22:52:63
  TRACK 32 AUDIO
    TITLE "Crimson, Part 32"
    REM REPLAYGAIN_TRACK_GAIN -9.25 dB
    REM REPLAYGAIN_TRACK_PEAK 1.084413
    INDEX 01 24:27:57
  TRACK 33 AUDIO
    TITLE "Crimson, Part 33"
    REM REPLAYGAIN_TRACK_GAIN -11.27 dB
    REM REPLAYGAIN_TRACK_PEAK 1.089645
    INDEX 01 25:43:28
  TRACK 34 AUDIO
    TITLE "Crimson, Part 34"
    REM REPLAYGAIN_TRACK_GAIN -6.95 dB
    REM REPLAYGAIN_TRACK_PEAK 1.073506
    INDEX 01 26:40:35
  TRACK 35 AUDIO
    TITLE "Crimson, Part 35"
    REM REPLAYGAIN_TRACK_GAIN -10.39 dB
    REM REPLAYGAIN_TRACK_PEAK 1.102312
    INDEX 01 27:51:54
  TRACK 36 AUDIO
    TITLE "Crimson, Part 36"
    REM REPLAYGAIN_TRACK_GAIN -9.35 dB
    REM REPLAYGAIN_TRACK_PEAK 1.065695
    INDEX 01 29:14:55
  TRACK 37 AUDIO
    TITLE "Crimson, Part 37"
    REM REPLAYGAIN_TRACK_GAIN -9.79 dB
    REM REPLAYGAIN_TRACK_PEAK 1.074667
    INDEX 01 30:05:16
  TRACK 38 AUDIO
    TITLE "Crimson, Part 38"
    REM REPLAYGAIN_TRACK_GAIN -10.20 dB
    REM REPLAYGAIN_TRACK_PEAK 1.072641
    INDEX 01 31:06:70
  TRACK 39 AUDIO
    TITLE "Crimson, Part 39"
    REM REPLAYGAIN_TRACK_GAIN -3.66 dB
    REM REPLAYGAIN_TRACK_PEAK 0.813600
    INDEX 01 31:39:38
  TRACK 40 AUDIO
    TITLE "Crimson, Part 40"
    REM REPLAYGAIN_TRACK_GAIN -10.18 dB
    REM REPLAYGAIN_TRACK_PEAK 1.095581
    INDEX 01 32:27:00
  TRACK 41 AUDIO
    TITLE "Crimson, Part 41"
    REM REPLAYGAIN_TRACK_GAIN -10.26 dB
    REM REPLAYGAIN_TRACK_PEAK 1.096531
    INDEX 01 33:20:11
  TRACK 42 AUDIO
    TITLE "Crimson, Part 42"
    REM REPLAYGAIN_TRACK_GAIN -10.22 dB
    REM REPLAYGAIN_TRACK_PEAK 1.099213
    INDEX 01 34:18:19
  TRACK 43 AUDIO
    TITLE "Crimson, Part 43"
    REM REPLAYGAIN_TRACK_GAIN -10.09 dB
    REM REPLAYGAIN_TRACK_PEAK 1.091079
    INDEX 01 35:54:45
  TRACK 44 AUDIO
    TITLE "Crimson, Part 44"
    REM REPLAYGAIN_TRACK_GAIN -9.66 dB
    REM REPLAYGAIN_TRACK_PEAK 1.067710
    INDEX 01 37:32:16
  TRACK 45 AUDIO
    TITLE "Crimson, Part 45"
    REM REPLAYGAIN_TRACK_GAIN -9.82 dB
    REM REPLAYGAIN_TRACK_PEAK 1.078692
    INDEX 01 37:52:12
  TRACK 46 AUDIO
    TITLE "Crimson, Part 46"
    REM REPLAYGAIN_TRACK_GAIN -10.10 dB
    REM REPLAYGAIN_TRACK_PEAK 1.061775
    INDEX 01 38:13:64
  TRACK 47 AUDIO
    TITLE "Crimson II, Part 1"
    REM REPLAYGAIN_TRACK_GAIN -10.84 dB
    REM REPLAYGAIN_TRACK_PEAK 1.053018
    INDEX 00 38:36:29
    INDEX 01 38:38:29
  TRACK 48 AUDIO
    TITLE "Crimson II, Part 2"
    REM REPLAYGAIN_TRACK_GAIN -10.44 dB
    REM REPLAYGAIN_TRACK_PEAK 1.069183
    INDEX 01 39:56:22
  TRACK 49 AUDIO
    TITLE "Crimson II, Part 3"
    REM REPLAYGAIN_TRACK_GAIN -10.14 dB
    REM REPLAYGAIN_TRACK_PEAK 1.042545
    INDEX 01 41:00:31
  TRACK 50 AUDIO
    TITLE "Crimson II, Part 4"
    REM REPLAYGAIN_TRACK_GAIN -10.33 dB
    REM REPLAYGAIN_TRACK_PEAK 1.039090
    INDEX 01 41:43:16
  TRACK 51 AUDIO
    TITLE "Crimson II, Part 5"
    REM REPLAYGAIN_TRACK_GAIN -9.77 dB
    REM REPLAYGAIN_TRACK_PEAK 1.076504
    INDEX 01 42:47:19
  TRACK 52 AUDIO
    TITLE "Crimson II, Part 6"
    REM REPLAYGAIN_TRACK_GAIN -10.00 dB
    REM REPLAYGAIN_TRACK_PEAK 1.066017
    INDEX 01 43:47:08
  TRACK 53 AUDIO
    TITLE "Crimson II, Part 7"
    REM REPLAYGAIN_TRACK_GAIN -10.48 dB
    REM REPLAYGAIN_TRACK_PEAK 1.053724
    INDEX 01 44:34:55
  TRACK 54 AUDIO
    TITLE "Crimson II, Part 8"
    REM REPLAYGAIN_TRACK_GAIN -10.14 dB
    REM REPLAYGAIN_TRACK_PEAK 1.059979
    INDEX 01 45:47:35
  TRACK 55 AUDIO
    TITLE "Crimson II, Part 9"
    REM REPLAYGAIN_TRACK_GAIN -10.24 dB
    REM REPLAYGAIN_TRACK_PEAK 1.043081
    INDEX 01 46:52:41
  TRACK 56 AUDIO
    TITLE "Crimson II, Part 10"
    REM REPLAYGAIN_TRACK_GAIN -10.53 dB
    REM REPLAYGAIN_TRACK_PEAK 1.059817
    INDEX 01 47:32:38
  TRACK 57 AUDIO
    TITLE "Crimson II, Part 11"
    REM REPLAYGAIN_TRACK_GAIN -10.35 dB
    REM REPLAYGAIN_TRACK_PEAK 1.052755
    INDEX 01 48:39:01
  TRACK 58 AUDIO
    TITLE "Crimson II, Part 12"
    REM REPLAYGAIN_TRACK_GAIN -10.17 dB
    REM REPLAYGAIN_TRACK_PEAK 1.039192
    INDEX 01 49:27:22
  TRACK 59 AUDIO
    TITLE "Crimson II, Part 13"
    REM REPLAYGAIN_TRACK_GAIN -8.15 dB
    REM REPLAYGAIN_TRACK_PEAK 1.029701
    INDEX 01 50:11:11
  TRACK 60 AUDIO
    TITLE "Crimson II, Part 14"
    REM REPLAYGAIN_TRACK_GAIN -10.18 dB
    REM REPLAYGAIN_TRACK_PEAK 1.084152
    INDEX 01 51:23:51
  TRACK 61 AUDIO
    TITLE "Crimson II, Part 15"
    REM REPLAYGAIN_TRACK_GAIN -10.29 dB
    REM REPLAYGAIN_TRACK_PEAK 1.064918
    INDEX 01 51:59:19
  TRACK 62 AUDIO
    TITLE "Crimson II, Part 16"
    REM REPLAYGAIN_TRACK_GAIN -10.44 dB
    REM REPLAYGAIN_TRACK_PEAK 1.039924
    INDEX 01 52:57:70
  TRACK 63 AUDIO
    TITLE "Crimson II, Part 17"
    REM REPLAYGAIN_TRACK_GAIN -10.37 dB
    REM REPLAYGAIN_TRACK_PEAK 1.065348
    INDEX 01 53:41:13
  TRACK 64 AUDIO
    TITLE "Crimson II, Part 18"
    REM REPLAYGAIN_TRACK_GAIN -9.58 dB
    REM REPLAYGAIN_TRACK_PEAK 1.055689
    INDEX 01 54:35:73
  TRACK 65 AUDIO
    TITLE "Crimson II, Part 19"
    REM REPLAYGAIN_TRACK_GAIN -10.20 dB
    REM REPLAYGAIN_TRACK_PEAK 1.043689
    INDEX 01 55:47:60
  TRACK 66 AUDIO
    TITLE "Crimson II, Part 20"
    REM REPLAYGAIN_TRACK_GAIN -10.79 dB
    REM REPLAYGAIN_TRACK_PEAK 1.054136
    INDEX 01 56:52:64
  TRACK 67 AUDIO
    TITLE "Crimson II, Part 21"
    REM REPLAYGAIN_TRACK_GAIN -10.55 dB
    REM REPLAYGAIN_TRACK_PEAK 1.031386
    INDEX 01 58:09:48
  TRACK 68 AUDIO
    TITLE "Crimson II, Part 22"
    REM REPLAYGAIN_TRACK_GAIN -2.30 dB
    REM REPLAYGAIN_TRACK_PEAK 1.018072
    INDEX 01 58:28:56
  TRACK 69 AUDIO
    TITLE "Crimson II, Part 23"
    REM REPLAYGAIN_TRACK_GAIN -10.04 dB
    REM REPLAYGAIN_TRACK_PEAK 1.056946
    INDEX 01 59:05:32
  TRACK 70 AUDIO
    TITLE "Crimson II, Part 24"
    REM REPLAYGAIN_TRACK_GAIN -10.40 dB
    REM REPLAYGAIN_TRACK_PEAK 1.050760
    INDEX 01 59:17:71
  TRACK 71 AUDIO
    TITLE "Crimson II, Part 25"
    REM REPLAYGAIN_TRACK_GAIN -10.41 dB
    REM REPLAYGAIN_TRACK_PEAK 1.039001
    INDEX 01 59:58:08
  TRACK 72 AUDIO
    TITLE "Crimson II, Part 26"
    REM REPLAYGAIN_TRACK_GAIN -9.82 dB
    REM REPLAYGAIN_TRACK_PEAK 1.057534
    INDEX 01 60:20:56
  TRACK 73 AUDIO
    TITLE "Crimson II, Part 27"
    REM REPLAYGAIN_TRACK_GAIN +0.03 dB
    REM REPLAYGAIN_TRACK_PEAK 0.535926
    INDEX 01 61:13:25
  TRACK 74 AUDIO
    TITLE "Crimson II, Part 28"
    REM REPLAYGAIN_TRACK_GAIN -10.84 dB
    REM REPLAYGAIN_TRACK_PEAK 1.053493
    INDEX 01 61:33:62
  TRACK 75 AUDIO
    TITLE "Crimson II, Part 29"
    REM REPLAYGAIN_TRACK_GAIN -8.94 dB
    REM REPLAYGAIN_TRACK_PEAK 1.034394
    INDEX 01 62:22:38
  TRACK 76 AUDIO
    TITLE "Crimson II, Part 30"
    REM REPLAYGAIN_TRACK_GAIN -5.36 dB
    REM REPLAYGAIN_TRACK_PEAK 0.981271
    INDEX 01 62:49:03
  TRACK 77 AUDIO
    TITLE "Crimson II, Part 31"
    REM REPLAYGAIN_TRACK_GAIN -6.23 dB
    REM REPLAYGAIN_TRACK_PEAK 1.002305
    INDEX 01 63:35:61
  TRACK 78 AUDIO
    TITLE "Crimson II, Part 32"
    REM REPLAYGAIN_TRACK_GAIN -10.40 dB
    REM REPLAYGAIN_TRACK_PEAK 1.057299
    INDEX 01 64:45:09
  TRACK 79 AUDIO
    TITLE "Crimson II, Part 33"
    REM REPLAYGAIN_TRACK_GAIN -10.62 dB
    REM REPLAYGAIN_TRACK_PEAK 1.036386
    INDEX 01 65:02:34
  TRACK 80 AUDIO
    TITLE "Crimson II, Part 34"
    REM REPLAYGAIN_TRACK_GAIN -10.51 dB
    REM REPLAYGAIN_TRACK_PEAK 1.048394
    INDEX 01 65:18:29
  TRACK 81 AUDIO
    TITLE "Crimson II, Part 35"
    REM REPLAYGAIN_TRACK_GAIN -7.50 dB
    REM REPLAYGAIN_TRACK_PEAK 1.013283
    INDEX 01 66:30:30
  TRACK 82 AUDIO
    TITLE "Crimson II, Part 36"
    REM REPLAYGAIN_TRACK_GAIN -7.71 dB
    REM REPLAYGAIN_TRACK_PEAK 1.016238
    INDEX 01 67:14:40
  TRACK 83 AUDIO
    TITLE "Crimson II, Part 37"
    REM REPLAYGAIN_TRACK_GAIN -9.34 dB
    REM REPLAYGAIN_TRACK_PEAK 1.069951
    INDEX 01 68:00:63
  TRACK 84 AUDIO
    TITLE "Crimson II, Part 38"
    REM REPLAYGAIN_TRACK_GAIN -10.41 dB
    REM REPLAYGAIN_TRACK_PEAK 1.046384
    INDEX 01 69:05:33
  TRACK 85 AUDIO
    TITLE "Crimson II, Part 39"
    REM REPLAYGAIN_TRACK_GAIN -10.37 dB
    REM REPLAYGAIN_TRACK_PEAK 1.065853
    INDEX 01 69:29:25
  TRACK 86 AUDIO
    TITLE "Crimson II, Part 40"
    REM REPLAYGAIN_TRACK_GAIN -10.60 dB
    REM REPLAYGAIN_TRACK_PEAK 1.059033
    INDEX 01 69:53:35
  TRACK 87 AUDIO
    TITLE "Crimson II, Part 41"
    REM REPLAYGAIN_TRACK_GAIN -10.07 dB
    REM REPLAYGAIN_TRACK_PEAK 1.051512
    INDEX 01 70:17:27
  TRACK 88 AUDIO
    TITLE "Crimson II, Part 42"
    REM REPLAYGAIN_TRACK_GAIN -10.27 dB
    REM REPLAYGAIN_TRACK_PEAK 1.047072
    INDEX 01 70:39:08
  TRACK 89 AUDIO
    TITLE "Crimson II, Part 43"
    REM REPLAYGAIN_TRACK_GAIN -10.34 dB
    REM REPLAYGAIN_TRACK_PEAK 1.061442
    INDEX 01 71:11:12
  TRACK 90 AUDIO
    TITLE "Crimson II, Part 44"
    REM REPLAYGAIN_TRACK_GAIN -10.14 dB
    REM REPLAYGAIN_TRACK_PEAK 1.073117
    INDEX 01 71:53:55
  TRACK 91 AUDIO
    TITLE "Crimson II, Part 45"
    REM REPLAYGAIN_TRACK_GAIN -10.01 dB
    REM REPLAYGAIN_TRACK_PEAK 1.053137
    INDEX 01 72:36:17
  TRACK 92 AUDIO
    TITLE "Crimson II, Part 46"
    REM REPLAYGAIN_TRACK_GAIN -10.58 dB
    REM REPLAYGAIN_TRACK_PEAK 1.091899
    INDEX 01 73:40:45
  TRACK 93 AUDIO
    TITLE "Crimson II, Part 47"
    REM REPLAYGAIN_TRACK_GAIN -10.40 dB
    REM REPLAYGAIN_TRACK_PEAK 1.069606
    INDEX 01 74:10:05
  TRACK 94 AUDIO
    TITLE "Crimson II, Part 48"
    REM REPLAYGAIN_TRACK_GAIN -10.14 dB
    REM REPLAYGAIN_TRACK_PEAK 1.041885
    INDEX 01 75:12:34
  TRACK 95 AUDIO
    TITLE "Crimson II, Part 49"
    REM REPLAYGAIN_TRACK_GAIN -10.19 dB
    REM REPLAYGAIN_TRACK_PEAK 1.150353
    INDEX 01 75:53:31
  TRACK 96 AUDIO
    TITLE "Crimson II, Part 50"
    REM REPLAYGAIN_TRACK_GAIN -10.00 dB
    REM REPLAYGAIN_TRACK_PEAK 1.036077
    INDEX 01 77:07:17
  TRACK 97 AUDIO
    TITLE "Crimson II, Part 51"
    REM REPLAYGAIN_TRACK_GAIN -10.74 dB
    REM REPLAYGAIN_TRACK_PEAK 1.055573
    INDEX 01 77:40:33
  TRACK 98 AUDIO
    TITLE "Crimson II, Part 52"
    REM REPLAYGAIN_TRACK_GAIN -9.63 dB
    REM REPLAYGAIN_TRACK_PEAK 1.034923
    INDEX 01 78:58:27
  TRACK 99 AUDIO
    TITLE "Crimson II, Part 53"
    REM REPLAYGAIN_TRACK_GAIN -9.48 dB
    REM REPLAYGAIN_TRACK_PEAK 1.073862
    INDEX 01 79:27:13
